<svg width="1024" height="1024" viewBox="0 0 1024 1024" fill="none" xmlns="http://www.w3.org/2000/svg">
<g clip-path="url(#clip0_8_9)">
<rect width="1024" height="1024" rx="266" fill="white"/>
<rect width="1024" height="1024" fill="white"/>
<path d="M726 594C759.137 594 786 620.863 786 654C786 666.221 782.346 677.588 776.071 687.07C771.422 694.093 771.422 703.907 776.071 710.93C782.346 720.412 786 731.779 786 744C786 777.137 759.137 804 726 804C692.863 804 666 777.137 666 744C666 740.264 663.126 737 659.39 737H363.61C359.874 737 357 740.264 357 744C357 777.137 330.137 804 297 804C263.863 804 237 777.137 237 744C237 731.779 240.654 720.412 246.929 710.93C251.577 703.907 251.577 694.093 246.929 687.07C240.654 677.588 237 666.221 237 654C237 620.863 263.863 594 297 594C330.137 594 357 620.863 357 654C357 657.218 359.494 660 362.713 660H660.287C663.506 660 666 657.218 666 654C666 620.863 692.863 594 726 594Z" fill="#FF5500"/>
<path d="M595 494C651.333 494 697 539.667 697 596C697 652.333 651.333 698 595 698C564.799 698 537.665 684.874 518.988 664.016C515.331 659.931 508.669 659.931 505.012 664.016C486.335 684.874 459.201 698 429 698C372.667 698 327 652.333 327 596C327 539.667 372.667 494 429 494C459.201 494 486.335 507.126 505.012 527.983C508.669 532.068 515.331 532.068 518.988 527.983C537.665 507.126 564.799 494 595 494Z" fill="white"/>
<circle cx="599" cy="436" r="27" fill="#FF5404"/>
<circle cx="27" cy="27" r="27" transform="matrix(-1 0 0 1 452 409)" fill="#FF5404"/>
<path d="M466 516C466 508.82 471.82 503 479 503H545C552.18 503 558 508.82 558 516V528.345C558 542.514 546.514 554 532.345 554H491.655C477.486 554 466 542.514 466 528.345V516Z" fill="#FF5500"/>
<path d="M678.44 192.064C697.941 189.564 824.941 261.064 811.44 294.564C797.94 328.064 755.441 385.564 713.94 382.564C672.44 379.564 635.801 205.249 659.44 200.064C659.44 200.064 658.94 194.564 678.44 192.064Z" fill="#FF5500" stroke="#FF5500"/>
<path d="M346.002 192.064C326.501 189.564 199.502 261.064 213.002 294.564C226.503 328.064 269.002 385.564 310.502 382.564C352.003 379.564 388.642 205.249 365.002 200.064C365.002 200.064 365.503 194.564 346.002 192.064Z" fill="#FF5500" stroke="#FF5500"/>
<circle cx="436.5" cy="612.5" r="4.5" fill="#FF5404"/>
<circle cx="453.5" cy="638.5" r="4.5" fill="#FF5404"/>
<circle cx="407.5" cy="629.5" r="4.5" fill="#FF5404"/>
<circle cx="4.5" cy="4.5" r="4.5" transform="matrix(-1 0 0 1 592 608)" fill="#FF5404"/>
<circle cx="4.5" cy="4.5" r="4.5" transform="matrix(-1 0 0 1 575 634)" fill="#FF5404"/>
<circle cx="4.5" cy="4.5" r="4.5" transform="matrix(-1 0 0 1 621 625)" fill="#FF5404"/>
</g>
<defs>
<clipPath id="clip0_8_9">
<rect width="1024" height="1024" rx="266" fill="white"/>
</clipPath>
</defs>
</svg>
